<svg width="44" height="44" viewBox="0 0 44 44" fill="none" xmlns="http://www.w3.org/2000/svg">
<path d="M22 0C34.1503 0 44 9.84974 44 22C44 34.1503 34.1503 44 22 44C9.84974 44 0 34.1503 0 22C0 9.84974 9.84974 0 22 0ZM21.9658 4.4082C18.4931 4.40831 15.0983 5.43991 12.2109 7.37305C9.32347 9.30625 7.07289 12.0539 5.74414 15.2686C4.41543 18.4831 4.06828 22.0202 4.74609 25.4326C5.42398 28.845 7.09678 31.9795 9.55273 34.4395C11.1793 36.078 13.1142 37.3773 15.2451 38.2617C17.3759 39.146 19.6605 39.5988 21.9668 39.5928H22.1582C22.2429 39.5928 22.3271 39.5921 22.4131 39.5889C25.9375 39.5092 29.3571 38.3718 32.2295 36.3242C32.386 36.2197 32.5377 36.1084 32.6836 35.9902C33.1792 35.6121 33.654 35.2073 34.1064 34.7783C37.0081 32.0158 38.8861 28.347 39.4316 24.374C39.4465 24.266 39.4547 24.1569 39.4551 24.0479C39.4778 23.9563 39.494 23.8633 39.5039 23.7695C39.8069 20.7651 39.3324 17.7326 38.127 14.9648C36.7632 11.8328 34.5185 9.16675 31.667 7.29199C28.8154 5.41718 25.4801 4.415 22.0693 4.4082H21.9658ZM28.5127 22.5625C29.1228 22.5734 29.7315 22.6243 30.335 22.7148H30.3398C30.4371 22.7295 30.5339 22.7452 30.6299 22.7617L30.6553 22.7666C30.7482 22.7825 30.8407 22.7999 30.9336 22.8184L30.9688 22.8252C31.0596 22.843 31.15 22.8611 31.2402 22.8809L31.2793 22.8906C31.3695 22.9104 31.4592 22.9312 31.5488 22.9541L31.5859 22.9629C31.6763 22.9852 31.7667 23.008 31.8564 23.0322L31.8848 23.04C31.9784 23.0649 32.0717 23.0914 32.1641 23.1182H32.1709C32.5669 23.2342 32.958 23.3675 33.3438 23.5176H33.3477C33.4183 23.545 33.4886 23.5739 33.5586 23.6025L33.6533 23.6416C33.7132 23.6665 33.7728 23.6916 33.832 23.7178L33.959 23.7734C34.0125 23.797 34.0657 23.8215 34.1191 23.8457C34.1724 23.8699 34.2138 23.8895 34.2607 23.9092C34.3079 23.929 34.3585 23.9559 34.4062 23.9795C34.4539 24.003 34.5097 24.0305 34.5605 24.0566L34.6943 24.125C34.7491 24.1537 34.8043 24.1826 34.8584 24.2119L34.9814 24.2754C35.0393 24.3072 35.0961 24.3399 35.1533 24.373L35.2656 24.4365C35.3292 24.4722 35.3869 24.508 35.4473 24.5449L35.5293 24.5938C35.3063 25.7722 34.93 26.9166 34.4102 27.9971C33.9829 27.1545 33.3762 26.4161 32.6338 25.833C31.8912 25.2499 31.0302 24.8365 30.1113 24.6221C29.1924 24.4076 28.2378 24.3965 27.3145 24.5908C26.3911 24.7852 25.5217 25.1803 24.7666 25.7471C24.0116 26.3139 23.3889 27.0389 22.9434 27.8721C22.4978 28.7053 22.2402 29.6265 22.1875 30.5703C22.1348 31.5141 22.2887 32.4581 22.6387 33.3359C22.9886 34.2135 23.5259 35.0038 24.2129 35.6514C24.0597 35.6768 23.906 35.701 23.751 35.7207L23.667 35.7285C23.6404 35.7323 23.6132 35.7351 23.5859 35.7383C20.6543 36.0733 17.6924 35.4561 15.1367 33.9785C12.581 32.5009 10.5661 30.2401 9.38867 27.5293C8.82991 26.2556 8.46742 24.9042 8.31348 23.5215C8.4252 23.5736 8.53727 23.6242 8.64941 23.6738H8.65332C9.78228 24.1754 10.9605 24.5572 12.1689 24.8125L12.1855 24.8164C12.4203 24.8657 12.6568 24.9102 12.8945 24.9502L12.9424 24.958C13.0389 24.9739 13.133 24.9883 13.2314 25.0029L13.3135 25.0146C13.4108 25.0287 13.5085 25.0416 13.6064 25.0537L13.6562 25.0605H13.6748C13.7773 25.0727 13.8799 25.0835 13.9824 25.0938L14.0146 25.0977L14.1055 25.1064L14.2432 25.1191L14.3779 25.1309L14.5137 25.1406C14.5582 25.1445 14.6032 25.1472 14.6484 25.1504L14.7871 25.1582L14.9141 25.165L15.0625 25.1719L15.1816 25.1768L15.3438 25.1807H15.8271C15.9328 25.1807 16.0393 25.1806 16.1455 25.1768H16.2422C16.3611 25.1736 16.4797 25.1688 16.5986 25.1631L16.7393 25.1562C16.843 25.1505 16.9471 25.1434 17.0508 25.1357C17.1054 25.1319 17.1602 25.1272 17.2148 25.1221C17.2982 25.1151 17.3815 25.1079 17.4648 25.0996L17.627 25.083C17.7338 25.0715 17.841 25.0593 17.9453 25.0459L18.1172 25.0234L18.332 24.9922C18.4097 24.9807 18.4868 24.9688 18.5645 24.9561L18.8076 24.915L18.9863 24.8828L19.2451 24.832L19.458 24.7871L19.6768 24.7383L19.8379 24.7012C19.9447 24.6757 20.0511 24.6491 20.1562 24.6211L20.3066 24.5811C20.3944 24.5575 20.4822 24.5336 20.5693 24.5088C20.6158 24.4954 20.6622 24.4828 20.708 24.4688C20.8124 24.4381 20.9158 24.4046 21.0195 24.374L21.1426 24.334C21.2589 24.2964 21.3745 24.2579 21.4902 24.2178L21.5742 24.1885C21.6795 24.1515 21.7847 24.1143 21.8887 24.0752L21.9678 24.0449C22.0887 23.999 22.2091 23.9518 22.3291 23.9033L22.4121 23.8711C22.5394 23.8195 22.6611 23.7671 22.7852 23.7129C22.9092 23.6587 23.0399 23.603 23.1729 23.5508C24.0796 23.186 25.0223 22.9185 25.9854 22.7529C26.0363 22.744 26.0877 22.7362 26.1387 22.7285L26.3291 22.6982L26.4795 22.6777L26.6514 22.6553L26.8145 22.6377L26.9736 22.6211L27.1475 22.6055L27.293 22.5947L27.4785 22.582L27.6104 22.5752C27.674 22.5752 27.7434 22.5683 27.8096 22.5664H27.9229L28.1387 22.5625H28.5127ZM28.874 28.2051C29.5432 28.264 30.167 28.5681 30.626 29.0596C31.085 29.5511 31.3472 30.1952 31.3613 30.8682C31.3754 31.541 31.141 32.1957 30.7031 32.7061C30.4001 32.9544 30.0861 33.1897 29.7627 33.4121C29.151 33.6904 28.4582 33.7332 27.8174 33.5312C27.1765 33.3293 26.6325 32.8965 26.29 32.3174C25.9478 31.7385 25.8311 31.0535 25.9619 30.3936C26.0929 29.7333 26.4625 29.1441 27 28.7402C27.5374 28.3364 28.2048 28.1462 28.874 28.2051ZM13.3467 17.9932L13.4531 17.999C13.5905 18.0067 13.7279 18.0152 13.8652 18.0254L13.9189 18.0293L14.1465 18.0488L14.2266 18.0557C14.3659 18.0691 14.5049 18.0847 14.6436 18.1006L14.7041 18.1074C14.7829 18.117 14.8613 18.1278 14.9395 18.1387L14.9785 18.1436C15.1261 18.1639 15.2732 18.1849 15.4199 18.207L15.4834 18.2178C15.7202 18.2565 15.9563 18.3002 16.1914 18.3486L16.2588 18.3623C16.4929 18.4112 16.7266 18.4647 16.959 18.5225L17.0312 18.541C17.1719 18.5767 17.3131 18.6138 17.4531 18.6533L17.498 18.666L17.7188 18.7295L17.7979 18.7539C17.9252 18.7909 18.0477 18.8299 18.1719 18.8701L18.2646 18.8994C18.3333 18.9217 18.4017 18.9452 18.4697 18.9688L18.5684 19.0039C18.681 19.0428 18.7933 19.0832 18.9053 19.124L19.0264 19.1699C19.09 19.1935 19.154 19.2173 19.2139 19.2422L19.4395 19.3311L19.6348 19.4121C19.6844 19.4325 19.7346 19.4535 19.7842 19.4756L19.9473 19.5459C20.0345 19.5842 20.1214 19.6235 20.208 19.6631L20.3584 19.7324L20.543 19.8203L20.707 19.8965C20.786 19.9354 20.8641 19.9751 20.9424 20.0146L21.0693 20.0781C21.1514 20.1208 21.233 20.164 21.3145 20.2061L21.3682 20.2354L21.2871 20.2695C21.1564 20.3312 21.025 20.3887 20.8926 20.4414C18.8981 21.2351 16.7469 21.5544 14.6084 21.374C12.4699 21.1936 10.4023 20.5181 8.56836 19.4014C8.54181 19.3843 8.51386 19.3686 8.4873 19.3516C8.55266 19.0144 8.63045 18.6797 8.72168 18.3477L8.7793 18.3359C8.87408 18.3168 8.97031 18.2991 9.06445 18.2812L9.16797 18.2617C9.27811 18.2419 9.38791 18.2239 9.49805 18.2061L9.6123 18.1885C9.69571 18.1751 9.78022 18.1628 9.86426 18.1514L9.97949 18.1348C10.0844 18.1208 10.189 18.1078 10.2939 18.0957L10.4365 18.0801L10.6621 18.0566C10.7258 18.0509 10.7899 18.0442 10.8535 18.0391C10.9317 18.0321 11.0097 18.0262 11.0879 18.0205L11.2529 18.0088L11.457 17.9971L11.7119 17.9854L11.8818 17.9785L12.0674 17.9736H12.6699C12.8953 17.9762 13.1213 17.9825 13.3467 17.9932ZM16.5137 9.32617C18.9323 8.27093 21.6022 7.93208 24.207 8.34961C24.2642 8.35598 24.3214 8.36482 24.3779 8.375L24.415 8.38086C30.3651 9.45116 35.0043 14.3531 35.6895 20.4355L35.5977 20.3945L35.4014 20.3047L35.2041 20.2197C35.135 20.1899 35.0652 20.1604 34.9961 20.1318C34.9267 20.1031 34.8684 20.0802 34.8047 20.0547C34.741 20.0292 34.6588 19.9965 34.585 19.9678C34.5214 19.9442 34.4572 19.9214 34.3975 19.8984C34.3218 19.8698 34.2452 19.8428 34.1689 19.8154L33.9854 19.751L33.749 19.6719L33.5674 19.6143L33.3242 19.54L33.1436 19.4873L32.8975 19.418L32.7148 19.3701C32.6322 19.3485 32.5495 19.3283 32.4668 19.3066C32.4242 19.2958 32.3824 19.2836 32.3398 19.2734L32.2559 19.2588L32.2188 19.25L32.1826 19.2422C32.0553 19.2135 31.9311 19.1863 31.8057 19.1602L31.7666 19.1523C31.6367 19.1264 31.5068 19.1019 31.377 19.0781H31.3633C31.2317 19.0543 31.0987 19.0324 30.9658 19.0137L30.918 19.0068C30.7875 18.9871 30.6559 18.9678 30.5254 18.9512L30.4893 18.9473C30.2199 18.9128 29.9501 18.8845 29.6807 18.8633L29.6377 18.8604C29.5078 18.8501 29.3774 18.8418 29.2471 18.835H29.1953C29.063 18.8286 28.9311 18.8232 28.7988 18.8193H28.7861C28.6588 18.8155 28.529 18.8129 28.3975 18.8125H28.3086C28.1954 18.8125 28.0823 18.8126 27.9697 18.8164H27.8906C27.7634 18.8196 27.6361 18.8234 27.5127 18.8291H27.4746C27.3587 18.8348 27.2418 18.842 27.126 18.8496L27.043 18.8555C26.9221 18.8644 26.8015 18.8743 26.6807 18.8857L26.5918 18.8945C26.4729 18.906 26.3533 18.9189 26.2344 18.9336H26.2109L26.0898 18.8408C26.0051 18.7776 25.9221 18.7154 25.8408 18.6543C25.788 18.6148 25.7341 18.576 25.6807 18.5371L25.5889 18.4697L25.4287 18.3574L25.333 18.2891C25.2695 18.2451 25.2061 18.2015 25.1426 18.1582L25.0752 18.1104C25.0115 18.0651 24.9412 18.0216 24.875 17.9775L24.8154 17.9375L24.6006 17.7988L24.5527 17.7676C24.4808 17.7217 24.4082 17.6761 24.335 17.6309L24.2881 17.6016C24.2149 17.5563 24.1412 17.5118 24.0674 17.4678L24.0215 17.4395C23.9489 17.3961 23.8763 17.354 23.8037 17.3125C23.7859 17.3023 23.7688 17.2908 23.751 17.2812C23.6792 17.2392 23.6066 17.1986 23.5342 17.1572L23.4795 17.126L23.2578 17.0039L23.2051 16.9746L22.9883 16.8584L22.9297 16.8271L22.7148 16.7158L22.6514 16.6836L22.4395 16.5801L22.3711 16.5459L22.1611 16.4443L22.0889 16.4102C22.0214 16.3776 21.9529 16.3463 21.8848 16.3145L21.8047 16.2773L21.6064 16.1875L21.5186 16.1484L21.3271 16.0645L21.2334 16.0234L21.043 15.9453L20.9414 15.9033L20.7598 15.8301L20.6504 15.7861L20.4736 15.7178L20.3574 15.6738L20.1865 15.6094L20.0635 15.5645L19.8984 15.5059L19.7666 15.46L19.6055 15.4053L19.4707 15.3594L19.3115 15.3086L19.1729 15.2627L19.0146 15.2148L18.8721 15.1709C18.8206 15.155 18.7682 15.1403 18.7168 15.125L18.5723 15.083L18.418 15.04L18.2705 14.999L18.1152 14.958L17.9688 14.9199L17.8086 14.8799L17.665 14.8447L17.502 14.8057L17.3613 14.7734L17.1914 14.7363L17.0713 14.7109H17.0586L17.0361 14.7051C16.9215 14.6808 16.8059 14.6579 16.6904 14.6357L16.6084 14.6201C16.5129 14.6016 16.4168 14.5849 16.3213 14.5684L16.207 14.5488C16.116 14.5329 16.0246 14.5179 15.9336 14.5039L15.832 14.4883C15.5851 14.45 15.337 14.4167 15.0889 14.3867L14.9854 14.375L14.709 14.3447L14.5986 14.334C14.4968 14.3238 14.3938 14.3149 14.292 14.3066L14.2246 14.3008C14.0973 14.2906 13.971 14.2821 13.8467 14.2744L13.7764 14.2695C13.6745 14.2638 13.5726 14.2584 13.4707 14.2539L13.3604 14.249C13.2675 14.2452 13.1739 14.2418 13.0811 14.2393H12.9785C12.7291 14.2329 12.4789 14.2305 12.2295 14.2324H12.123C12.032 14.2324 11.941 14.2332 11.8506 14.2383H11.7305C11.6356 14.2415 11.5395 14.2446 11.4473 14.249L11.3545 14.2529C11.2316 14.2587 11.1092 14.2642 10.9863 14.2725L10.8955 14.2793C10.8021 14.2857 10.709 14.2922 10.6162 14.2998L10.5596 14.3037C12.0288 12.1087 14.0952 10.3814 16.5137 9.32617Z" fill="white"/>
</svg>
