<svg width="263" height="263" viewBox="0 0 263 263" fill="none" xmlns="http://www.w3.org/2000/svg">
<path d="M131.212 0C203.678 0.000164931 262.423 58.7461 262.423 131.212C262.423 203.678 203.678 262.423 131.212 262.423C58.7461 262.423 0.000164974 203.678 0 131.212C0 58.7459 58.7459 0 131.212 0ZM131.004 26.2891C110.291 26.2895 90.0445 32.4438 72.8232 43.9736C55.6019 55.5035 42.1797 71.8908 34.2549 91.0635C26.33 110.236 24.2577 131.333 28.3008 151.686C32.3438 172.038 42.3208 190.732 56.9688 205.403C66.6697 215.176 78.2087 222.923 90.918 228.198C103.627 233.473 117.255 236.17 131.012 236.134H132.15C132.655 236.134 133.157 236.134 133.67 236.115C154.69 235.64 175.085 228.857 192.217 216.645C193.151 216.021 194.053 215.356 194.924 214.651C197.88 212.396 200.715 209.983 203.414 207.424C220.72 190.947 231.919 169.065 235.173 145.369C235.262 144.725 235.307 144.075 235.31 143.425C235.445 142.878 235.543 142.323 235.602 141.763C237.409 123.844 234.582 105.76 227.393 89.2529C219.259 70.572 205.871 54.669 188.863 43.4873C171.856 32.3057 151.965 26.3296 131.623 26.2891H131.004ZM170.049 134.564C173.688 134.63 177.32 134.933 180.92 135.474H180.947C181.528 135.561 182.105 135.657 182.679 135.756L182.83 135.782C183.384 135.877 183.935 135.981 184.489 136.091L184.698 136.132C185.241 136.238 185.78 136.349 186.319 136.467L186.548 136.521C187.087 136.638 187.622 136.764 188.157 136.9L188.378 136.954C188.917 137.087 189.456 137.224 189.991 137.368L190.162 137.414C190.72 137.562 191.275 137.718 191.825 137.878H191.867C194.229 138.57 196.56 139.365 198.861 140.26H198.888C199.309 140.423 199.727 140.598 200.145 140.77L200.711 141.002C201.068 141.15 201.421 141.302 201.773 141.458L202.533 141.785C202.852 141.926 203.167 142.074 203.486 142.219C203.805 142.363 204.052 142.482 204.333 142.6C204.614 142.718 204.914 142.877 205.199 143.018C205.484 143.158 205.817 143.323 206.121 143.479L206.919 143.885C207.245 144.056 207.572 144.227 207.895 144.402L208.628 144.783C208.973 144.973 209.315 145.164 209.656 145.361L210.325 145.742C210.705 145.955 211.051 146.168 211.411 146.389L211.896 146.682C210.567 153.711 208.323 160.536 205.222 166.98C202.673 161.954 199.058 157.547 194.629 154.069C190.2 150.591 185.065 148.127 179.585 146.848C174.105 145.569 168.41 145.506 162.903 146.665C157.396 147.824 152.209 150.177 147.706 153.558C143.203 156.938 139.492 161.265 136.835 166.234C134.178 171.204 132.638 176.695 132.323 182.324C132.009 187.953 132.928 193.584 135.016 198.819C137.103 204.055 140.308 208.769 144.407 212.632C143.492 212.784 142.574 212.924 141.647 213.042L141.149 213.088C140.99 213.111 140.827 213.127 140.664 213.146C123.178 215.143 105.514 211.464 90.2715 202.651C75.0286 193.838 63.0115 180.356 55.9893 164.188C52.6564 156.591 50.4942 148.53 49.5762 140.282C50.2442 140.594 50.9134 140.899 51.584 141.195H51.6035C58.3375 144.187 65.3661 146.464 72.5742 147.986L72.6738 148.005C74.0735 148.299 75.482 148.565 76.8994 148.804L77.1846 148.85C77.7616 148.945 78.3236 149.033 78.9121 149.12L79.3984 149.188C79.9792 149.272 80.56 149.352 81.1445 149.424L81.4404 149.462H81.5547C82.166 149.534 82.7773 149.603 83.3887 149.664L83.582 149.687L84.1211 149.736L84.9414 149.812L85.751 149.881L86.5596 149.941C86.8252 149.964 87.0909 149.98 87.3604 149.999L88.1885 150.048L88.9473 150.09L89.8281 150.128L90.542 150.154L91.5068 150.182H94.3926C95.0228 150.182 95.657 150.181 96.291 150.158H96.8682C97.5782 150.139 98.2851 150.109 98.9951 150.075L99.8301 150.033C100.449 149.999 101.068 149.957 101.687 149.911C102.013 149.888 102.34 149.861 102.666 149.831C103.163 149.789 103.662 149.748 104.159 149.698L105.123 149.6C105.761 149.531 106.399 149.459 107.021 149.379L108.047 149.241L109.33 149.059C109.793 148.99 110.253 148.918 110.716 148.842L112.167 148.599L113.233 148.404L114.779 148.101L116.044 147.834L117.354 147.545L118.314 147.32C118.952 147.168 119.585 147.008 120.213 146.841L121.105 146.605C121.629 146.465 122.153 146.32 122.673 146.172C122.95 146.092 123.228 146.015 123.501 145.932C124.124 145.749 124.739 145.552 125.357 145.369L126.091 145.133C126.786 144.908 127.477 144.68 128.168 144.44L128.669 144.266C129.297 144.045 129.921 143.818 130.541 143.585L131.016 143.41C131.737 143.136 132.456 142.855 133.172 142.565L133.662 142.367C134.421 142.059 135.146 141.751 135.887 141.428C136.627 141.104 137.406 140.77 138.199 140.458C143.609 138.282 149.233 136.686 154.979 135.698C155.282 135.645 155.586 135.599 155.89 135.554L157.029 135.375L157.925 135.254L158.95 135.12L159.919 135.014L160.868 134.915L161.904 134.823L162.774 134.755L163.883 134.683L164.669 134.641C165.049 134.641 165.459 134.603 165.854 134.592H166.533L167.816 134.564H170.049ZM161.027 171.412C164.233 169.003 168.213 167.865 172.205 168.216C176.197 168.567 179.919 170.384 182.656 173.315C185.394 176.247 186.954 180.089 187.038 184.103C187.122 188.116 185.724 192.019 183.111 195.063C181.304 196.545 179.436 197.948 177.507 199.274C173.859 200.935 169.727 201.187 165.904 199.982C162.082 198.778 158.838 196.202 156.795 192.748C154.752 189.294 154.054 185.206 154.835 181.269C155.616 177.331 157.822 173.821 161.027 171.412ZM75.5625 107.197C76.9067 107.212 78.2515 107.252 79.5957 107.315L80.2295 107.346C81.0497 107.391 81.8703 107.444 82.6904 107.505L83.0127 107.528L84.3682 107.646L84.8428 107.688C85.6743 107.767 86.5023 107.859 87.3301 107.954L87.6904 107.996C88.1613 108.053 88.6287 108.114 89.0957 108.179L89.3271 108.209C90.2081 108.331 91.087 108.458 91.9629 108.59L92.3418 108.654C93.7543 108.885 95.1621 109.145 96.5645 109.435L96.9668 109.518C98.364 109.809 99.7564 110.128 101.144 110.473L101.573 110.583C102.412 110.796 103.252 111.017 104.087 111.253L104.356 111.325L105.674 111.705L106.145 111.85C106.904 112.07 107.633 112.302 108.373 112.542L108.928 112.721C109.338 112.854 109.748 112.991 110.154 113.132L110.739 113.341C111.411 113.573 112.08 113.816 112.748 114.06L113.473 114.33C113.852 114.471 114.232 114.611 114.589 114.76L115.938 115.293L117.103 115.775C117.399 115.897 117.695 116.024 117.991 116.156L118.964 116.574C119.484 116.802 120.004 117.035 120.521 117.271L121.416 117.689L122.518 118.211L123.497 118.667C123.968 118.899 124.431 119.135 124.898 119.371L125.657 119.751C126.147 120.006 126.633 120.261 127.119 120.512L127.438 120.684L126.956 120.893C126.177 121.26 125.392 121.602 124.603 121.916C112.707 126.65 99.8766 128.554 87.1221 127.478C74.3677 126.402 62.0365 122.375 51.0986 115.715C50.9392 115.612 50.7718 115.517 50.6123 115.414C51.0021 113.403 51.4695 111.407 52.0137 109.427L52.3555 109.358C52.9212 109.244 53.4947 109.138 54.0566 109.031L54.6748 108.917C55.3317 108.799 55.9857 108.689 56.6426 108.582L57.3252 108.479C57.8225 108.4 58.3241 108.327 58.8252 108.259L59.5127 108.16C60.1392 108.076 60.7622 108 61.3887 107.928L62.2393 107.832L63.5869 107.691C63.9666 107.657 64.3469 107.619 64.7266 107.589C65.1933 107.547 65.6563 107.509 66.123 107.475L67.1104 107.406L68.3262 107.334L69.8447 107.266L70.8584 107.228L71.9668 107.197H75.5625ZM98.4863 55.6201C112.911 49.3265 128.834 47.3047 144.37 49.7949C144.712 49.8329 145.053 49.8865 145.391 49.9473L145.611 49.9814C181.099 56.3649 208.764 85.6047 212.85 121.882L212.307 121.634L211.138 121.102L209.96 120.596C209.546 120.417 209.129 120.241 208.715 120.07C208.301 119.899 207.956 119.762 207.576 119.61C207.196 119.458 206.706 119.264 206.266 119.093C205.886 118.952 205.506 118.816 205.149 118.679C204.698 118.508 204.242 118.343 203.786 118.18L202.688 117.8L201.28 117.328L200.194 116.981L198.747 116.54L197.669 116.225L196.2 115.813L195.113 115.524C194.62 115.395 194.126 115.274 193.633 115.145C193.378 115.08 193.127 115.011 192.873 114.95L192.376 114.862L192.156 114.81L191.936 114.76C191.176 114.589 190.439 114.429 189.691 114.273L189.456 114.228C188.681 114.073 187.906 113.924 187.132 113.782H187.049C186.264 113.64 185.476 113.514 184.684 113.402L184.395 113.356C183.616 113.239 182.834 113.128 182.056 113.029L181.835 113.003C180.228 112.798 178.62 112.631 177.013 112.504L176.759 112.485C175.984 112.424 175.208 112.374 174.431 112.333H174.12C173.33 112.295 172.544 112.261 171.754 112.238H171.678C170.919 112.215 170.147 112.203 169.362 112.2H168.834C168.158 112.2 167.482 112.2 166.811 112.223H166.34C165.58 112.242 164.821 112.265 164.084 112.299H163.856C163.165 112.333 162.47 112.375 161.779 112.421L161.282 112.455C160.561 112.508 159.843 112.569 159.121 112.638L158.594 112.69C157.884 112.759 157.17 112.835 156.46 112.923H156.319L155.602 112.371C155.095 111.993 154.599 111.621 154.113 111.256C153.798 111.02 153.479 110.793 153.16 110.561L152.609 110.157L151.656 109.483L151.087 109.08C150.707 108.818 150.327 108.559 149.947 108.301L149.545 108.015C149.165 107.745 148.751 107.482 148.356 107.22L147.996 106.98L146.716 106.155L146.432 105.969C146.003 105.695 145.569 105.424 145.133 105.154L144.852 104.979C144.415 104.709 143.978 104.443 143.538 104.181L143.261 104.013C142.828 103.754 142.399 103.499 141.966 103.252C141.86 103.191 141.758 103.126 141.651 103.069C141.222 102.818 140.789 102.575 140.356 102.328L140.029 102.142L138.708 101.411L138.396 101.24L137.103 100.548L136.749 100.361L135.47 99.6953L135.09 99.501L133.825 98.8848L133.419 98.6797L132.166 98.0742L131.736 97.8691C131.334 97.6752 130.928 97.489 130.521 97.2988L130.043 97.0781L128.862 96.5449L128.335 96.3096L127.195 95.8115L126.638 95.5674L125.498 95.0996L124.895 94.8486L123.809 94.4111L123.155 94.1484L122.104 93.7451L121.409 93.4795L120.392 93.0986L119.654 92.8291L118.671 92.4785L117.889 92.2051L116.929 91.8779L116.119 91.6035L115.17 91.2988L114.343 91.0293L113.404 90.7402L112.554 90.4814C112.246 90.3864 111.935 90.2983 111.628 90.207L110.762 89.9561L109.843 89.6973L108.966 89.458L108.035 89.2109L107.162 88.9824L106.209 88.7471L105.351 88.5332L104.379 88.3057L103.54 88.1113L102.529 87.8906L101.812 87.7344H101.736L101.6 87.7041C100.916 87.5595 100.23 87.4219 99.541 87.29L99.0479 87.1982C98.4783 87.0879 97.9084 86.9856 97.3389 86.8867L96.6553 86.7686C96.1124 86.6735 95.5692 86.5856 95.0264 86.502L94.4229 86.4072C92.9497 86.179 91.469 85.9805 89.9883 85.8018L89.373 85.7334L87.7207 85.5547L87.0645 85.4902C86.4571 85.4294 85.8457 85.3766 85.2383 85.3271L84.832 85.292C84.0727 85.2311 83.3217 85.1785 82.5801 85.1328L82.1582 85.1064C81.5508 85.0722 80.9472 85.0374 80.3398 85.0107L79.6787 84.9844C79.1244 84.9616 78.566 84.939 78.0117 84.9238H77.4004C75.9121 84.8858 74.42 84.8743 72.9316 84.8857H72.2979C71.7549 84.8857 71.215 84.8856 70.6758 84.916H69.958C69.3924 84.935 68.819 84.9538 68.2686 84.9805L67.7148 85.0029C66.982 85.0372 66.2524 85.0755 65.5195 85.125L64.9805 85.1631C64.4223 85.2011 63.8678 85.2395 63.3135 85.2852L62.9756 85.3076C71.7384 72.2159 84.0616 61.9137 98.4863 55.6201Z" fill="#FFD500"/>
</svg>
