<svg width="14" height="14" viewBox="0 0 14 14" fill="none" xmlns="http://www.w3.org/2000/svg">
<g clip-path="url(#clip0_293_250)">
<path fill-rule="evenodd" clip-rule="evenodd" d="M3.657 0.475C4.731 0.355 5.852 0.25 7 0.25C8.148 0.25 9.269 0.355 10.343 0.475C11.1593 0.5686 11.9197 0.936372 12.4999 1.51819C13.0801 2.1 13.4457 2.86143 13.537 3.678C13.652 4.747 13.75 5.86 13.75 7C13.75 8.14 13.652 9.253 13.537 10.322C13.4457 11.1386 13.0801 11.9 12.4999 12.4818C11.9197 13.0636 11.1593 13.4314 10.343 13.525C9.269 13.645 8.148 13.75 7 13.75C5.852 13.75 4.731 13.645 3.657 13.525C2.84069 13.4314 2.08029 13.0636 1.50011 12.4818C0.919933 11.9 0.554303 11.1386 0.463 10.322C0.348 9.253 0.25 8.14 0.25 7C0.25 5.86 0.348 4.747 0.463 3.678C0.554303 2.86143 0.919933 2.1 1.50011 1.51819C2.08029 0.936372 2.84069 0.5686 3.657 0.475ZM8.332 2.882C8.29748 2.73237 8.20908 2.60069 8.08367 2.51208C7.95826 2.42346 7.80461 2.38412 7.65205 2.40155C7.49948 2.41899 7.35867 2.49197 7.25648 2.60659C7.1543 2.72121 7.09788 2.86944 7.098 3.023V8.8C7.098 9.10696 7.00698 9.40702 6.83644 9.66224C6.66591 9.91747 6.42352 10.1164 6.13992 10.2339C5.85633 10.3513 5.54428 10.3821 5.24322 10.3222C4.94216 10.2623 4.66562 10.1145 4.44857 9.89743C4.23152 9.68038 4.08371 9.40384 4.02382 9.10278C3.96394 8.80172 3.99467 8.48967 4.11214 8.20608C4.22961 7.92248 4.42853 7.6801 4.68375 7.50956C4.93898 7.33902 5.23904 7.248 5.546 7.248C5.71176 7.248 5.87073 7.18215 5.98794 7.06494C6.10515 6.94773 6.171 6.78876 6.171 6.623C6.171 6.45724 6.10515 6.29827 5.98794 6.18106C5.87073 6.06385 5.71176 5.998 5.546 5.998C4.99182 5.998 4.45008 6.16233 3.98929 6.47022C3.52851 6.77811 3.16937 7.21572 2.95729 7.72772C2.74521 8.23972 2.68972 8.80311 2.79784 9.34664C2.90596 9.89018 3.17282 10.3894 3.56469 10.7813C3.95655 11.1732 4.45582 11.44 4.99936 11.5482C5.54289 11.6563 6.10628 11.6008 6.61828 11.3887C7.13028 11.1766 7.56789 10.8175 7.87578 10.3567C8.18367 9.89592 8.348 9.35418 8.348 8.8V5.31C8.948 5.82 9.722 6.1 10.63 6.1C10.7958 6.1 10.9547 6.03415 11.0719 5.91694C11.1892 5.79973 11.255 5.64076 11.255 5.475C11.255 5.30924 11.1892 5.15027 11.0719 5.03306C10.9547 4.91585 10.7958 4.85 10.63 4.85C9.97 4.85 9.48 4.646 9.119 4.325C8.751 3.997 8.478 3.509 8.332 2.882Z" fill="#FFD500"/>
</g>
<defs>
<clipPath id="clip0_293_250">
<rect width="14" height="14" fill="white"/>
</clipPath>
</defs>
</svg>
