<svg width="24" height="24" viewBox="0 0 24 24" fill="none" xmlns="http://www.w3.org/2000/svg">
<path fill-rule="evenodd" clip-rule="evenodd" d="M16.6751 2.62805C13.5289 1.92477 10.2663 1.92477 7.12008 2.62805L6.78108 2.70305C5.89586 2.90038 5.08277 3.33952 4.43235 3.97159C3.78192 4.60365 3.31968 5.40383 3.09708 6.28305C2.30097 9.42574 2.30097 12.7173 3.09708 15.86C3.30939 16.6985 3.73986 17.4659 4.34476 18.0841C4.94966 18.7024 5.70743 19.1495 6.54108 19.38L7.00608 22.156C7.02093 22.2442 7.05913 22.3268 7.11672 22.3951C7.1743 22.4635 7.24916 22.5152 7.33351 22.5448C7.41785 22.5744 7.50859 22.5809 7.59628 22.5635C7.68396 22.5461 7.76539 22.5056 7.83208 22.446L10.5631 20.003C12.6132 20.1268 14.6705 19.9629 16.6751 19.516L17.0151 19.441C17.9003 19.2437 18.7134 18.8046 19.3638 18.1725C20.0142 17.5404 20.4765 16.7403 20.6991 15.861C21.4952 12.7183 21.4952 9.42674 20.6991 6.28405C20.4764 5.40471 20.014 4.60444 19.3634 3.97236C18.7128 3.34028 17.8995 2.90121 17.0141 2.70405L16.6751 2.62805ZM7.96408 6.20205C7.77823 6.17483 7.58866 6.21225 7.42708 6.30805H7.41308C7.03808 6.52805 6.70008 6.80505 6.41208 7.13105C6.17208 7.40805 6.04208 7.68805 6.00808 7.95805C5.98808 8.11805 6.00208 8.28004 6.04908 8.43304L6.06708 8.44305C6.33708 9.23605 6.68908 9.99904 7.11908 10.717C7.67378 11.7254 8.35606 12.6581 9.14908 13.492L9.17308 13.526L9.21108 13.554L9.23408 13.581L9.26208 13.605C10.0991 14.4004 11.0339 15.0859 12.0441 15.645C13.1991 16.274 13.9001 16.571 14.3211 16.695V16.701C14.4441 16.739 14.5561 16.756 14.6691 16.756C15.0278 16.7303 15.3674 16.5845 15.6331 16.342C15.9581 16.054 16.2331 15.715 16.4471 15.338V15.331C16.6481 14.951 16.5801 14.593 16.2901 14.35C15.7081 13.8405 15.0781 13.3884 14.4091 13C13.9611 12.757 13.5061 12.904 13.3221 13.15L12.9291 13.646C12.7271 13.892 12.3611 13.858 12.3611 13.858L12.3511 13.864C9.62008 13.167 8.89108 10.402 8.89108 10.402C8.89108 10.402 8.85708 10.026 9.11008 9.83404L9.60208 9.43805C9.83808 9.24605 10.0021 8.79205 9.74908 8.34405C9.36166 7.67547 8.91056 7.04588 8.40208 6.46405C8.29086 6.32742 8.13509 6.23431 7.96208 6.20105M12.5781 5.00005C12.4455 5.00005 12.3183 5.05272 12.2245 5.14649C12.1308 5.24026 12.0781 5.36744 12.0781 5.50005C12.0781 5.63265 12.1308 5.75983 12.2245 5.8536C12.3183 5.94737 12.4455 6.00005 12.5781 6.00005C13.8431 6.00005 14.8931 6.41305 15.7241 7.20505C16.1511 7.63805 16.4841 8.15105 16.7021 8.71305C16.9211 9.27605 17.0211 9.87704 16.9951 10.479C16.9923 10.5447 17.0025 10.6103 17.0251 10.672C17.0477 10.7337 17.0822 10.7904 17.1267 10.8387C17.2165 10.9365 17.3415 10.9945 17.4741 11C17.6067 11.0056 17.7361 10.9583 17.8338 10.8684C17.9315 10.7786 17.9895 10.6537 17.9951 10.521C18.0249 9.7806 17.902 9.04195 17.6341 8.35105C17.3649 7.65663 16.955 7.02541 16.4301 6.49705L16.4201 6.48705C15.3891 5.50205 14.0841 5.00005 12.5781 5.00005ZM12.5441 6.64405C12.4115 6.64405 12.2843 6.69672 12.1905 6.79049C12.0968 6.88426 12.0441 7.01144 12.0441 7.14405C12.0441 7.27665 12.0968 7.40383 12.1905 7.4976C12.2843 7.59137 12.4115 7.64405 12.5441 7.64405H12.5611C13.4731 7.70905 14.1371 8.01305 14.6021 8.51205C15.0791 9.02605 15.3261 9.66504 15.3071 10.455C15.304 10.5877 15.3538 10.716 15.4454 10.812C15.537 10.9079 15.663 10.9635 15.7956 10.9665C15.9282 10.9696 16.0566 10.9198 16.1525 10.8282C16.2484 10.7366 16.304 10.6107 16.3071 10.478C16.3311 9.44104 15.9971 8.54605 15.3351 7.83205V7.83005C14.6581 7.10405 13.7291 6.72005 12.6111 6.64505L12.5941 6.64305L12.5441 6.64405ZM12.5251 8.31905C12.4582 8.31314 12.3908 8.32078 12.3269 8.34151C12.263 8.36223 12.2039 8.39562 12.1532 8.43968C12.1025 8.48374 12.0612 8.53757 12.0317 8.59794C12.0023 8.65832 11.9853 8.72401 11.9818 8.79109C11.9783 8.85818 11.9884 8.92528 12.0114 8.98839C12.0344 9.0515 12.0699 9.10932 12.1157 9.15841C12.1616 9.2075 12.2169 9.24685 12.2783 9.2741C12.3397 9.30136 12.4059 9.31596 12.4731 9.31705C12.8911 9.33905 13.1581 9.46505 13.3261 9.63405C13.4951 9.80405 13.6211 10.077 13.6441 10.504C13.6453 10.5711 13.6601 10.6373 13.6874 10.6986C13.7148 10.7599 13.7542 10.815 13.8033 10.8607C13.8525 10.9065 13.9103 10.9418 13.9734 10.9647C14.0364 10.9876 14.1035 10.9976 14.1705 10.994C14.2375 10.9905 14.3031 10.9735 14.3634 10.944C14.4237 10.9146 14.4775 10.8733 14.5215 10.8226C14.5655 10.7719 14.5989 10.7129 14.6196 10.6491C14.6403 10.5853 14.6479 10.5179 14.6421 10.451C14.6101 9.85105 14.4221 9.32105 14.0371 8.93105C13.6501 8.54105 13.1231 8.35105 12.5251 8.31905Z" fill="white"/>
</svg>
